# xmcd
#
# Track frame offsets: 
#        150
#        17037
#        36567
#        54180
#        80532
#        102970
#        122452
#        138205
#        155580
#        172800
#        192152
#        208450
#        225627
#
# Disc length: 3306 seconds
#
# Revision: 1
# Processed by: cddbd v1.5.2PL0 Copyright (c) Steve Scherf et al.
# Submitted via: ExactAudioCopyFreeDBPlugin 1.0
#
DISCID=a70ce80d
DTITLE=Rusty Kershaw - Now And Then
DYEAR=1992
DGENRE=Country
TTITLE0=New Orleans Rag
TTITLE1=Don't Make An Outlaw Outta Me
TTITLE2=Boys In The Band
TTITLE3=I Like To Live On The Bayou
TTITLE4=Musician's Woman
TTITLE5=The Circle Song
TTITLE6=This Is Rock and Roll
TTITLE7=I Don't Like The Feeling
TTITLE8=Married Man
TTITLE9=In The Backroom
TTITLE10=Goin' Down To Louisiana
TTITLE11=Stop Kicking My Dog Around
TTITLE12=Future Song
EXTD=
EXTT0=
EXTT1=
EXTT2=
EXTT3=
EXTT4=
EXTT5=
EXTT6=
EXTT7=
EXTT8=
EXTT9=
EXTT10=
EXTT11=
EXTT12=
PLAYORDER=
